<svg id="Layer_1" data-name="Layer 1" xmlns="http://www.w3.org/2000/svg" viewBox="0 0 500 500"><defs><style>.cls-1{fill:#e8edfc;}.cls-2{fill:#fff;}.cls-3{fill:#428dff;}.cls-4{fill:#0e9347;}.cls-5{fill:#3bb54a;}.cls-6{fill:#89c763;}.cls-7{fill:#ffca5d;}.cls-8{fill:#f6b545;}.cls-9{fill:#ffcb5b;}.cls-10{fill:#f19920;}</style></defs><title>Icono Daniel</title><path class="cls-1" d="M220.7,164.1V282.25h39.39V78.76a6.57,6.57,0,0,0-6.57-6.57H227.26a6.57,6.57,0,0,0-6.56,6.57Z"/><path class="cls-1" d="M299.48,98.46a6.57,6.57,0,0,0-6.57,6.56v295.4H332.3V105a6.56,6.56,0,0,0-6.56-6.56Z"/><path class="cls-1" d="M136.49,308.51V65.63h26.26a6.57,6.57,0,0,0,4.66-11.23L121.46,8.45l5.18,5.19L85.88,54.4a6.57,6.57,0,0,0,4.66,11.23H116.8V308.51"/><rect class="cls-2" x="90.54" y="65.63" width="13.13" height="52.52"/><path class="cls-3" d="M103.67,308.51V118.15a6.57,6.57,0,0,0-13.13,0V308.51Z"/><path class="cls-3" d="M103.67,91.89a6.57,6.57,0,1,1-6.57-6.57,6.57,6.57,0,0,1,6.57,6.57Zm0,0"/><path class="cls-3" d="M143.06,308.51V72.19h19.69a13.12,13.12,0,0,0,9.3-22.43l-46-45.95a13.27,13.27,0,0,0-18.61,0L61.54,49.76a13.12,13.12,0,0,0,9.3,22.43H97.1a6.56,6.56,0,1,0,0-13.12H70.84l46-46,46,46H136.49a6.56,6.56,0,0,0-6.56,6.56V308.51"/><path class="cls-3" d="M325.74,91.89H299.48A13.13,13.13,0,0,0,286.35,105v295.4h13.13V105h26.26v295.4h13.12V105A13.12,13.12,0,0,0,325.74,91.89Z"/><path class="cls-3" d="M253.52,65.63H227.26a13.13,13.13,0,0,0-13.13,13.13V282.25h13.13V78.76h26.26V282.25h13.13V78.76A13.13,13.13,0,0,0,253.52,65.63Z"/><path class="cls-4" d="M424.85,377.61H75.15a17.54,17.54,0,0,1-17.48-17.49V167.79a17.53,17.53,0,0,1,17.48-17.48h349.7a17.53,17.53,0,0,1,17.48,17.48V360.12A17.54,17.54,0,0,1,424.85,377.61Z"/><path class="cls-5" d="M389.88,360.12H110.12a35.07,35.07,0,0,0-35-35V202.76a35.07,35.07,0,0,0,35-35H389.88a35.07,35.07,0,0,0,35,35V325.15A35.07,35.07,0,0,0,389.88,360.12Z"/><path class="cls-4" d="M381.14,307.67c-20.11,0-38.47,9.61-49,25.35-8.74-4.37-18.36-7.87-29.73-7.87a60,60,0,0,0-55.07,35h142.5c0-19.23,14.86-34.09,34.09-35C412.61,314.66,397.75,307.67,381.14,307.67Z"/><ellipse class="cls-4" cx="250" cy="263.96" rx="69.94" ry="78.68"/><circle class="cls-4" cx="145.09" cy="263.96" r="17.48"/><circle class="cls-4" cx="354.91" cy="263.96" r="17.48"/><path class="cls-6" d="M258.74,255.21H241.26c-5.25,0-8.74-3.49-8.74-8.74s3.49-8.74,8.74-8.74h26.22c5.25,0,8.75-3.5,8.75-8.74s-3.5-8.75-8.75-8.75h-8.74c0-5.24-3.49-8.74-8.74-8.74s-8.74,3.5-8.74,8.74a26.23,26.23,0,1,0,0,52.46h17.48c5.25,0,8.74,3.5,8.74,8.74s-3.49,8.74-8.74,8.74H232.52c-5.25,0-8.75,3.5-8.75,8.75s3.5,8.74,8.75,8.74h8.74c0,5.24,3.49,8.74,8.74,8.74s8.74-3.5,8.74-8.74a26.23,26.23,0,1,0,0-52.46Z"/><circle class="cls-7" cx="284.97" cy="386.35" r="61.2"/><circle class="cls-8" cx="363.65" cy="368.86" r="61.2"/><path class="cls-9" d="M363.65,307.67a61.2,61.2,0,1,0,61.2,61.19A60.82,60.82,0,0,0,363.65,307.67Zm0,104.91a43.72,43.72,0,1,1,43.71-43.72A43.29,43.29,0,0,1,363.65,412.58Z"/><path class="cls-9" d="M389.88,396a3.21,3.21,0,0,1-2.63-.88,4.24,4.24,0,0,1,0-6.12c5.25-5.24,7.87-13.11,7.87-20.11a4.38,4.38,0,0,1,8.75,0,40.36,40.36,0,0,1-9.62,26.23A9.46,9.46,0,0,1,389.88,396Z"/><path class="cls-10" d="M363.65,395.09c-5.24,0-8.74-3.5-8.74-8.74v-35c0-5.25,3.5-8.74,8.74-8.74s8.74,3.49,8.74,8.74v35C372.39,391.59,368.9,395.09,363.65,395.09Z"/><path class="cls-9" d="M319.94,326c-10.49,11.36-17.49,26.22-17.49,42.83h.88c4.37,0,7.87-3.49,8.74-7.86a54.41,54.41,0,0,1,15.74-30.6A35.39,35.39,0,0,1,319.94,326Z"/><circle class="cls-8" cx="284.97" cy="386.35" r="61.2"/><path class="cls-9" d="M285,325.15a61.2,61.2,0,1,0,61.2,61.2A60.82,60.82,0,0,0,285,325.15Zm0,104.91a43.71,43.71,0,1,1,43.71-43.71A43.28,43.28,0,0,1,285,430.06Z"/><path class="cls-8" d="M285,446.67h0c34.09.88,61.2-27.1,61.2-60.32h-.88c-4.37,0-7.87,3.5-8.74,7.87a52.87,52.87,0,0,1-16.61,31.47c-7,7-16.61,11.37-27.1,13.11A7.84,7.84,0,0,0,285,446.67Z"/><path class="cls-9" d="M311.2,413.45a3.24,3.24,0,0,1-2.63-.87,4.24,4.24,0,0,1,0-6.12c5.25-5.25,7.87-13.12,7.87-20.11a4.37,4.37,0,0,1,8.74,0,40.37,40.37,0,0,1-9.61,26.23A9.55,9.55,0,0,1,311.2,413.45Z"/><path class="cls-10" d="M285,412.58c-5.25,0-8.74-3.5-8.74-8.75v-35c0-5.24,3.49-8.74,8.74-8.74s8.74,3.5,8.74,8.74v35C293.71,409.08,290.21,412.58,285,412.58Z"/><circle class="cls-8" cx="328.68" cy="438.8" r="61.2"/><path class="cls-9" d="M328.68,377.61a61.2,61.2,0,1,0,61.2,61.19A60.82,60.82,0,0,0,328.68,377.61Zm0,104.91a43.72,43.72,0,1,1,43.71-43.72A43.29,43.29,0,0,1,328.68,482.52Z"/><path class="cls-9" d="M354.91,465.9a3.21,3.21,0,0,1-2.62-.87,4.22,4.22,0,0,1,0-6.12c5.24-5.24,7.86-13.11,7.86-20.11a4.38,4.38,0,0,1,8.75,0A40.36,40.36,0,0,1,359.28,465,9.55,9.55,0,0,1,354.91,465.9Z"/><path class="cls-10" d="M328.68,465c-5.24,0-8.74-3.5-8.74-8.74v-35c0-5.25,3.5-8.74,8.74-8.74s8.74,3.49,8.74,8.74v35C337.42,461.53,333.93,465,328.68,465Z"/></svg>